<svg xmlns="http://www.w3.org/2000/svg" viewBox="0 0 1440 2040" width="1440" height="2040" font-family="'Pretendard', sans-serif">
  <defs>
    <radialGradient id="gradPaper" cx="18%" cy="8%" r="125%">
      <stop offset="0%" stop-color="#fbf6ea"/>
      <stop offset="42%" stop-color="#f5efe0"/>
      <stop offset="100%" stop-color="#ece3d0"/>
    </radialGradient>
    <linearGradient id="gradGold" x1="0" y1="0" x2="0" y2="1">
      <stop offset="0%" stop-color="#f6e6b8"/>
      <stop offset="100%" stop-color="#ecca78"/>
    </linearGradient>
    <radialGradient id="gradCoin" cx="38%" cy="30%" r="75%">
      <stop offset="0%" stop-color="#fbeec0"/>
      <stop offset="30%" stop-color="#f3cf6a"/>
      <stop offset="62%" stop-color="#e6bb50"/>
      <stop offset="85%" stop-color="#d4a73f"/>
      <stop offset="100%" stop-color="#c0922f"/>
    </radialGradient>
  </defs>

  <!-- ============ PAGE ============ -->
  <rect width="1440" height="2040" fill="url(#gradPaper)"/>

  <!-- ============ HEADER ============ -->
  <g>
    <line x1="85" y1="58" x2="109" y2="58" stroke="#7a6450" stroke-width="1.5" opacity="0.7"/>
    <text x="119" y="63" font-family="'IBM Plex Mono', monospace" font-size="13" font-weight="700" letter-spacing="2.4" fill="#7a6450">DESIGN SYSTEM · 정본 핸드오프</text>
    <text x="85" y="120" font-family="'Nanum Myeongjo', serif" font-size="58" font-weight="800" letter-spacing="-2" fill="#1a0f08">토론배틀 <tspan fill="#c84b1f">디자인 시스템</tspan></text>
    <text x="85" y="152" font-size="16" fill="#3d2a1e">신문 편집국에서 열리는 지적 결투 · newspaper editorial × 전략 보드게임 × 학습 리포트</text>
    <line x1="85" y1="178" x2="1355" y2="178" stroke="#e3d9c2" stroke-width="1.5"/>
  </g>

  <!-- ============ 01 COLOR ============ -->
  <g>
    <text x="85" y="232" font-family="'Nanum Myeongjo', serif" font-size="26" font-weight="800" fill="#1a0f08">01 — 색 / COLOR</text>

    <!-- PAPER & INK -->
    <text x="85" y="270" font-family="'IBM Plex Mono', monospace" font-size="11" font-weight="700" letter-spacing="1.6" fill="#7a6450">PAPER &amp; SURFACE</text>
    <g font-family="'IBM Plex Mono', monospace">
      <!-- swatch 1 -->
      <rect x="85"   y="282" width="195" height="100" rx="14" fill="#f6f0e2" stroke="#e3d9c2" stroke-width="1"/>
      <text x="85"  y="404" font-size="13" font-weight="700" fill="#1a0f08">paper</text>
      <text x="85"  y="422" font-size="12" fill="#7a6450">#f6f0e2</text>
      <rect x="300"  y="282" width="195" height="100" rx="14" fill="#fcf6e8" stroke="#e3d9c2" stroke-width="1"/>
      <text x="300" y="404" font-size="13" font-weight="700" fill="#1a0f08">paper-light</text>
      <text x="300" y="422" font-size="12" fill="#7a6450">#fcf6e8</text>
      <rect x="515"  y="282" width="195" height="100" rx="14" fill="#ece3d0" stroke="#e3d9c2" stroke-width="1"/>
      <text x="515" y="404" font-size="13" font-weight="700" fill="#1a0f08">paper-deep</text>
      <text x="515" y="422" font-size="12" fill="#7a6450">#ece3d0</text>
      <rect x="730"  y="282" width="195" height="100" rx="14" fill="#ddcdae" stroke="#e3d9c2" stroke-width="1"/>
      <text x="730" y="404" font-size="13" font-weight="700" fill="#1a0f08">paper-darker</text>
      <text x="730" y="422" font-size="12" fill="#7a6450">#ddcdae</text>
      <rect x="945"  y="282" width="195" height="100" rx="14" fill="#e3d9c2" stroke="#cdbf9f" stroke-width="1"/>
      <text x="945" y="404" font-size="13" font-weight="700" fill="#1a0f08">line</text>
      <text x="945" y="422" font-size="12" fill="#7a6450">#e3d9c2</text>
      <rect x="1160" y="282" width="195" height="100" rx="14" fill="#ece4d3" stroke="#cdbf9f" stroke-width="1"/>
      <text x="1160" y="404" font-size="13" font-weight="700" fill="#1a0f08">line-soft</text>
      <text x="1160" y="422" font-size="12" fill="#7a6450">#ece4d3</text>
    </g>

    <!-- INK -->
    <text x="85" y="468" font-family="'IBM Plex Mono', monospace" font-size="11" font-weight="700" letter-spacing="1.6" fill="#7a6450">INK / TEXT</text>
    <g font-family="'IBM Plex Mono', monospace">
      <rect x="85"  y="480" width="195" height="100" rx="14" fill="#1a0f08"/>
      <text x="100" y="528" font-size="13" font-weight="700" fill="#f6f0e2">ink</text>
      <text x="100" y="548" font-size="12" fill="#b8a589">#1a0f08</text>
      <rect x="300" y="480" width="195" height="100" rx="14" fill="#3d2a1e"/>
      <text x="315" y="528" font-size="13" font-weight="700" fill="#f6f0e2">ink-soft</text>
      <text x="315" y="548" font-size="12" fill="#b8a589">#3d2a1e</text>
      <rect x="515" y="480" width="195" height="100" rx="14" fill="#7a6450"/>
      <text x="530" y="528" font-size="13" font-weight="700" fill="#fcf6e8">ink-fade</text>
      <text x="530" y="548" font-size="12" fill="#f0e6d2">#7a6450</text>
      <rect x="730" y="480" width="195" height="100" rx="14" fill="#b8a589"/>
      <text x="745" y="528" font-size="13" font-weight="700" fill="#1a0f08">ink-ghost</text>
      <text x="745" y="548" font-size="12" fill="#3d2a1e">#b8a589</text>
    </g>

    <!-- ACCENT — meaning -->
    <text x="85" y="626" font-family="'IBM Plex Mono', monospace" font-size="11" font-weight="700" letter-spacing="1.6" fill="#7a6450">ACCENT — 의미 (색만으로 구분 금지: 색 + 라벨)</text>
    <g font-family="'IBM Plex Mono', monospace">
      <rect x="85"   y="638" width="195" height="100" rx="14" fill="#c84b1f"/>
      <text x="100" y="682" font-family="'Pretendard',sans-serif" font-size="14" font-weight="800" fill="#fcf6e8">찬성 · PRO</text>
      <text x="100" y="708" font-size="13" font-weight="700" fill="#fcf6e8">vermillion</text>
      <text x="100" y="726" font-size="12" fill="#ffd9c6">#c84b1f</text>
      <rect x="300"  y="638" width="195" height="100" rx="14" fill="#2d4a5a"/>
      <text x="315" y="682" font-family="'Pretendard',sans-serif" font-size="14" font-weight="800" fill="#fcf6e8">반대 · CON</text>
      <text x="315" y="708" font-size="13" font-weight="700" fill="#fcf6e8">celadon</text>
      <text x="315" y="726" font-size="12" fill="#bcd2dc">#2d4a5a</text>
      <rect x="515"  y="638" width="195" height="100" rx="14" fill="#b8842a"/>
      <text x="530" y="682" font-family="'Pretendard',sans-serif" font-size="14" font-weight="800" fill="#fcf6e8">AI 사회자</text>
      <text x="530" y="708" font-size="13" font-weight="700" fill="#fcf6e8">gold</text>
      <text x="530" y="726" font-size="12" fill="#f4e7c8">#b8842a</text>
      <rect x="730"  y="638" width="195" height="100" rx="14" fill="#fff3ec" stroke="#e3d9c2" stroke-width="1"/>
      <text x="745" y="700" font-size="13" font-weight="700" fill="#c84b1f">vermillion-tint</text>
      <text x="745" y="718" font-size="12" fill="#7a6450">#fff3ec</text>
      <rect x="945"  y="638" width="195" height="100" rx="14" fill="#eef4f6" stroke="#e3d9c2" stroke-width="1"/>
      <text x="960" y="700" font-size="13" font-weight="700" fill="#2d4a5a">celadon-tint</text>
      <text x="960" y="718" font-size="12" fill="#7a6450">#eef4f6</text>
      <rect x="1160" y="638" width="195" height="100" rx="14" fill="#f4e7c8" stroke="#e3d9c2" stroke-width="1"/>
      <text x="1175" y="700" font-size="13" font-weight="700" fill="#b8842a">gold-tint</text>
      <text x="1175" y="718" font-size="12" fill="#7a6450">#f4e7c8</text>
    </g>

    <!-- STAGE & GAME -->
    <text x="85" y="784" font-family="'IBM Plex Mono', monospace" font-size="11" font-weight="700" letter-spacing="1.6" fill="#7a6450">STAGE (무대 녹색) &amp; GAME ACCENTS (절제해서 사용)</text>
    <g font-family="'IBM Plex Mono', monospace">
      <rect x="85"   y="796" width="195" height="100" rx="14" fill="#4f7a64"/>
      <text x="100" y="844" font-size="13" font-weight="700" fill="#fcf6e8">sage</text>
      <text x="100" y="864" font-size="12" fill="#cfe0d6">#4f7a64</text>
      <rect x="300"  y="796" width="195" height="100" rx="14" fill="#3c6450"/>
      <text x="315" y="844" font-size="13" font-weight="700" fill="#fcf6e8">sage-deep</text>
      <text x="315" y="864" font-size="12" fill="#cfe0d6">#3c6450</text>
      <rect x="515"  y="796" width="195" height="100" rx="14" fill="#1f2a24"/>
      <text x="530" y="844" font-size="13" font-weight="700" fill="#f6f0e2">forest</text>
      <text x="530" y="864" font-size="12" fill="#9fb3a8">#1f2a24</text>
      <rect x="730"  y="796" width="195" height="100" rx="14" fill="#ff7a45"/>
      <text x="745" y="844" font-size="13" font-weight="700" fill="#fcf6e8">coral</text>
      <text x="745" y="864" font-size="12" fill="#ffe9df">#ff7a45</text>
      <rect x="945"  y="796" width="195" height="100" rx="14" fill="#2fa9c9"/>
      <text x="960" y="844" font-size="13" font-weight="700" fill="#fcf6e8">sky</text>
      <text x="960" y="864" font-size="12" fill="#d9f0f6">#2fa9c9</text>
      <rect x="1160" y="796" width="195" height="100" rx="14" fill="#ffc24d"/>
      <text x="1175" y="844" font-size="13" font-weight="700" fill="#1a0f08">sun</text>
      <text x="1175" y="864" font-size="12" fill="#3d2a1e">#ffc24d</text>
    </g>
    <line x1="85" y1="940" x2="1355" y2="940" stroke="#e3d9c2" stroke-width="1.5"/>
  </g>

  <!-- ============ 02 TYPE ============ -->
  <g>
    <text x="85" y="994" font-family="'Nanum Myeongjo', serif" font-size="26" font-weight="800" fill="#1a0f08">02 — 타이포 / TYPE</text>

    <text x="85" y="1024" font-family="'IBM Plex Mono', monospace" font-size="11" font-weight="700" letter-spacing="1.6" fill="#7a6450">DISPLAY · Nanum Myeongjo 800 · headline voice</text>
    <text x="85" y="1092" font-family="'Nanum Myeongjo', serif" font-size="68" font-weight="800" letter-spacing="-2.4" fill="#1a0f08">토론은 무대다</text>

    <g>
      <text x="85" y="1138" font-family="'IBM Plex Mono', monospace" font-size="11" font-weight="700" letter-spacing="1.6" fill="#7a6450">UI HEADINGS · Pretendard</text>
      <text x="85" y="1178" font-size="32" font-weight="800" letter-spacing="-0.8" fill="#1a0f08">H1 — 좋은 토론은 준비에서 갈린다 (32 / 800)</text>
      <text x="85" y="1216" font-size="24" font-weight="800" letter-spacing="-0.5" fill="#1a0f08">H2 — 청중 50% + AI 50% 판정 (24 / 800)</text>
      <text x="85" y="1250" font-size="18" font-weight="700" fill="#1a0f08">H3 — 라운드별 입론과 반론 (18 / 700)</text>
    </g>

    <g>
      <text x="85" y="1296" font-family="'IBM Plex Mono', monospace" font-size="11" font-weight="700" letter-spacing="1.6" fill="#7a6450">BODY · Pretendard 15 / line 1.6 · ink-soft</text>
      <text x="85" y="1330" font-size="15" fill="#3d2a1e">실시간 1:1 한국어 토론. AI 사회자가 진행하고, 청중이 투표하며, 마지막엔 청중과 AI가</text>
      <text x="85" y="1354" font-size="15" fill="#3d2a1e">반반씩 승부를 가립니다. 한글은 항상 word-break: keep-all 로 줄을 바꿉니다.</text>
    </g>

    <g>
      <line x1="85" y1="1396" x2="109" y2="1396" stroke="#c84b1f" stroke-width="1.5"/>
      <text x="119" y="1401" font-family="'IBM Plex Mono', monospace" font-size="11" font-weight="700" letter-spacing="2.4" fill="#c84b1f">EYEBROW · MONO CAPS 11</text>
      <text x="520" y="1401" font-family="'Gaegu', cursive" font-size="22" font-weight="700" fill="#3d2a1e">손글씨 악센트 — Gaegu</text>
      <text x="900" y="1401" font-family="'IBM Plex Mono', monospace" font-size="14" fill="#3d2a1e">MONO 01:23 · READOUT</text>
    </g>
    <line x1="85" y1="1432" x2="1355" y2="1432" stroke="#e3d9c2" stroke-width="1.5"/>
  </g>

  <!-- ============ 03 COMPONENTS ============ -->
  <g>
    <text x="85" y="1486" font-family="'Nanum Myeongjo', serif" font-size="26" font-weight="800" fill="#1a0f08">03 — 컴포넌트 / COMPONENTS</text>

    <!-- Buttons -->
    <text x="85" y="1522" font-family="'IBM Plex Mono', monospace" font-size="11" font-weight="700" letter-spacing="1.6" fill="#7a6450">BUTTONS · radius pill / soft glow</text>
    <g font-weight="700" font-size="16" text-anchor="middle" font-family="'Pretendard',sans-serif">
      <rect x="85"  y="1538" width="160" height="52" rx="999" fill="#c84b1f"/>
      <text x="165" y="1571" fill="#fcf6e8">토론하기</text>
      <rect x="261" y="1538" width="160" height="52" rx="999" fill="#2d4a5a"/>
      <text x="341" y="1571" fill="#fcf6e8">반대 입장</text>
      <rect x="437" y="1538" width="160" height="52" rx="999" fill="#b8842a"/>
      <text x="517" y="1571" fill="#fcf6e8">AI 사회자</text>
      <rect x="613" y="1538" width="160" height="52" rx="999" fill="none" stroke="#1a0f08" stroke-width="1.5"/>
      <text x="693" y="1571" fill="#1a0f08">방 만들기</text>
      <rect x="789" y="1538" width="120" height="52" rx="14" fill="#f6f0e2" stroke="#e3d9c2" stroke-width="1"/>
      <text x="849" y="1571" font-size="14" fill="#3d2a1e">보조</text>
    </g>

    <!-- Card -->
    <text x="85" y="1648" font-family="'IBM Plex Mono', monospace" font-size="11" font-weight="700" letter-spacing="1.6" fill="#7a6450">CARD · paper-light · radius 18 · soft shadow</text>
    <g>
      <rect x="83" y="1664" width="200" height="6" rx="3" fill="#000" opacity="0.06"/>
      <rect x="85" y="1662" width="360" height="180" rx="18" fill="#fcf6e8" stroke="#e3d9c2" stroke-width="1"/>
      <line x1="109" y1="1696" x2="133" y2="1696" stroke="#c84b1f" stroke-width="1.5"/>
      <text x="143" y="1701" font-family="'IBM Plex Mono', monospace" font-size="10" font-weight="700" letter-spacing="2" fill="#c84b1f">LIVE · 진행중</text>
      <text x="109" y="1742" font-family="'Nanum Myeongjo', serif" font-size="26" font-weight="800" letter-spacing="-1" fill="#1a0f08">사형제도 존치</text>
      <text x="109" y="1772" font-size="14" fill="#3d2a1e">3라운드 · 관전 12명</text>
      <rect x="109" y="1792" width="120" height="10" rx="5" fill="#ece3d0"/>
      <rect x="109" y="1792" width="74"  height="10" rx="5" fill="#c84b1f"/>
      <rect x="183" y="1792" width="46"  height="10" rx="5" fill="#2d4a5a"/>
      <text x="245" y="1801" font-family="'IBM Plex Mono', monospace" font-size="11" fill="#7a6450">62 : 38</text>
    </g>

    <!-- Stamps / seals -->
    <text x="505" y="1648" font-family="'IBM Plex Mono', monospace" font-size="11" font-weight="700" letter-spacing="1.6" fill="#7a6450">SIGNATURE · 도장 / 코인 씰 (화면당 1~2개 절제)</text>
    <!-- vermillion 토론 stamp -->
    <g transform="translate(575 1752) rotate(-4)">
      <rect x="-66" y="-66" width="132" height="132" rx="10" fill="#c84b1f" stroke="#1a0f08" stroke-width="3"/>
      <text x="0" y="22" text-anchor="middle" font-family="'Nanum Myeongjo', serif" font-size="62" font-weight="900" fill="#fcf6e8">論</text>
    </g>
    <!-- gold 討論 coin -->
    <g transform="translate(745 1752)">
      <circle r="66" fill="url(#gradCoin)" stroke="#a07820" stroke-width="2"/>
      <circle r="54" fill="none" stroke="#a07820" stroke-width="1.5" opacity="0.6"/>
      <text x="0" y="20" text-anchor="middle" font-family="'Nanum Myeongjo', serif" font-size="52" font-weight="900" fill="#6b4e16">討</text>
    </g>
    <!-- celadon WIN stamp -->
    <g transform="translate(915 1752) rotate(5)">
      <circle r="64" fill="none" stroke="#2d4a5a" stroke-width="4"/>
      <text x="0" y="-2" text-anchor="middle" font-family="'IBM Plex Mono', monospace" font-size="22" font-weight="700" letter-spacing="2" fill="#2d4a5a">WIN</text>
      <text x="0" y="28" text-anchor="middle" font-family="'Pretendard',sans-serif" font-size="20" font-weight="800" fill="#2d4a5a">승</text>
    </g>

    <!-- Chips / status -->
    <text x="1055" y="1648" font-family="'IBM Plex Mono', monospace" font-size="11" font-weight="700" letter-spacing="1.6" fill="#7a6450">CHIP / STATUS</text>
    <g font-family="'Pretendard',sans-serif" font-size="13" font-weight="700">
      <rect x="1055" y="1670" width="120" height="34" rx="999" fill="#fff3ec" stroke="#c84b1f" stroke-width="1"/>
      <circle cx="1075" cy="1687" r="4" fill="#c84b1f"/>
      <text x="1088" y="1692" fill="#c84b1f">진행중</text>
      <rect x="1055" y="1716" width="120" height="34" rx="999" fill="#eef4f6" stroke="#2d4a5a" stroke-width="1"/>
      <text x="1071" y="1738" fill="#2d4a5a">대기중</text>
      <rect x="1055" y="1762" width="160" height="34" rx="999" fill="#f4e7c8" stroke="#b8842a" stroke-width="1"/>
      <text x="1071" y="1784" fill="#94691f">판정 완료</text>
      <rect x="1190" y="1670" width="100" height="34" rx="8" fill="#1a0f08"/>
      <text x="1205" y="1692" fill="#fcf6e8" font-family="'IBM Plex Mono',monospace">R3</text>
    </g>
  </g>

  <!-- ============ FOOTER ============ -->
  <line x1="85" y1="1900" x2="1355" y2="1900" stroke="#e3d9c2" stroke-width="1.5"/>
  <text x="85" y="1944" font-family="'IBM Plex Mono', monospace" font-size="12" fill="#7a6450">출처: DESIGN-SYSTEM.md · src/design-system/colors_and_type.css — 색·치수는 정본과 일치. 텍스트는 모두 편집 가능한 글자 객체.</text>
  <text x="85" y="1968" font-family="'IBM Plex Mono', monospace" font-size="12" fill="#7a6450">금지: 마스코트·네온·글래스모피즘·파란 그라데이션·광택 3D. · 한글 word-break: keep-all.</text>
</svg>
